<?xml version="1.0" encoding="UTF-8"?>
<svg id="Isotipo" xmlns="http://www.w3.org/2000/svg" xmlns:xlink="http://www.w3.org/1999/xlink" viewBox="0 0 1080 986.67">
  <defs>
    <style>
      .cls-1 {
        fill: #fff;
      }

      .cls-2 {
        fill: url(#Degradado_sin_nombre_21);
      }
    </style>
    <linearGradient id="Degradado_sin_nombre_21" data-name="Degradado sin nombre 21" x1="224.53" y1="217.22" x2="1152.62" y2="1000.88" gradientUnits="userSpaceOnUse">
      <stop offset="0" stop-color="#16b8fc"/>
      <stop offset=".37" stop-color="#4873f2"/>
      <stop offset="1" stop-color="#9d00e3"/>
    </linearGradient>
  </defs>
  <rect class="cls-2" x="74.6" y="18.19" width="930.81" height="930.81" rx="66.89" ry="66.89"/>
  <g>
    <path class="cls-1" d="m870.79,95.11H209.21c-17.59,0-31.85,22.62-31.85,50.52v52.76c0,27.9,14.26,50.52,31.85,50.52h203.17c35.5,0,64.28-10.26,64.28,46.05l1.94,556.93c.08,18.91,106.28,33.47,128.56,1.02l-1.93-557.96c0-56.31,28.78-46.05,64.28-46.05h201.27c17.59,0,31.85-22.62,31.85-50.52v-52.76c0-27.9-14.26-50.52-31.85-50.52Z"/>
    <rect class="cls-1" x="333.13" y="315.72" width="76.65" height="108.79" rx="12.68" ry="12.68"/>
    <rect class="cls-1" x="670.22" y="315.72" width="76.65" height="108.79" rx="12.68" ry="12.68"/>
    <path class="cls-1" d="m808.24,354.09c-5.89,3.41-9.45,9.22-9.45,15.45l-1.59,66.55c-.48,27.33-15.13,52.44-38.69,66.31-42.52,29.77-66.14,65.2-66.14,65.2-25.99,35.44-7.09,266.96-7.09,266.96,0,0,174.82-70.87,214.61-262.96l2.5-291.69c.23-.52-94.16,74.18-94.16,74.18Z"/>
    <path class="cls-1" d="m276.7,354.09c5.89,3.41,9.45,9.22,9.45,15.45l1.59,66.55c.48,27.33,15.13,52.44,38.69,66.31,42.52,29.77,66.14,65.2,66.14,65.2,25.99,35.44,7.09,266.96,7.09,266.96,0,0-174.82-70.87-214.61-262.96l-2.5-291.69c-.23-.52,94.16,74.18,94.16,74.18Z"/>
  </g>
</svg>